<svg width="20" height="20" viewBox="0 0 20 20" xmlns="http://www.w3.org/2000/svg"><title>home</title><path d="M15.34 10.598v4.286a.55.55 0 0 1-.17.402.55.55 0 0 1-.401.17H11.34v-3.43H9.055v3.43H5.626a.55.55 0 0 1-.402-.17.55.55 0 0 1-.17-.402v-4.286c0-.006.002-.015.005-.027a.122.122 0 0 0 .004-.026l5.134-4.232 5.134 4.232c.006.012.01.03.01.053zm1.991-.616l-.553.66a.304.304 0 0 1-.188.1h-.027a.274.274 0 0 1-.187-.063l-6.179-5.152-6.178 5.152a.332.332 0 0 1-.214.062.304.304 0 0 1-.188-.098l-.554-.66a.29.29 0 0 1-.062-.21.26.26 0 0 1 .098-.193l6.42-5.348A1.04 1.04 0 0 1 10.197 4c.262 0 .489.077.679.232l2.179 1.822V4.312c0-.083.026-.151.08-.205a.278.278 0 0 1 .205-.08h1.715a.28.28 0 0 1 .205.08.28.28 0 0 1 .08.205v3.643l1.956 1.625a.26.26 0 0 1 .098.192.29.29 0 0 1-.063.21z" fill="#AEB0B2" fill-rule="evenodd"/></svg>